<?xml version="1.0" encoding="UTF-8"?>
<svg width="60px" height="60px" viewBox="0 0 60 60" version="1.1" xmlns="http://www.w3.org/2000/svg" xmlns:xlink="http://www.w3.org/1999/xlink">
    <title>4</title>
    <g id="Page-1" stroke="none" stroke-width="1" fill="none" fill-rule="evenodd">
        <g id="myobu-desktop-home" transform="translate(-1280.000000, -1315.000000)">
            <g id="4" transform="translate(1280.000000, 1315.000000)">
                <polygon id="Fill-1" fill="#8F75F9" points="29.9999397 0 12.613268 19.2708161 19.4108538 24.1035484"></polygon>
                <polygon id="Fill-2" fill="#CDBDFF" points="12.6134488 19.2707273 17.6034064 53.8179523 19.4107333 24.1034596"></polygon>
                <polygon id="Fill-3" fill="#CDBDFF" points="29.9771636 0 40.5662496 24.1035484 47.3635341 19.2708161"></polygon>
                <polygon id="Fill-4" fill="#8F75F9" points="47.363504 19.2707273 42.3735464 53.8179523 40.5662194 24.1034596"></polygon>
                <polygon id="Fill-5" fill="#8F75F9" points="29.9999397 59.9998816 29.9999397 56.5766962 17.6035269 53.8180115"></polygon>
                <polygon id="Fill-6" fill="#CDBDFF" points="17.603557 53.8179819 25.6586495 50.3782136 29.9996686 56.5766666"></polygon>
                <polygon id="Fill-7" fill="#8F75F9" points="19.4108839 24.103578 25.6586495 50.3783025 17.603557 53.8180707"></polygon>
                <polygon id="Fill-8" fill="#CDBDFF" points="29.9999397 56.5768146 29.9999397 60 42.3960513 53.8178338"></polygon>
                <polygon id="Fill-9" fill="#8F75F9" points="42.3960815 53.8179819 34.3412902 50.3782136 29.9999699 56.5766666"></polygon>
                <polygon id="Fill-10" fill="#CDBDFF" points="40.5890257 24.103578 34.3412601 50.3783025 42.3960513 53.8180707"></polygon>
                <polygon id="Fill-11" fill="#8F75F9" points="0 58.3810939 17.6035871 53.8178338 15.387435 38.4759817"></polygon>
                <polygon id="Fill-12" fill="#CDBDFF" points="42.3961116 53.8178931 60 58.3811531 44.612565 38.4760409"></polygon>
            </g>
        </g>
    </g>
</svg>