<?xml version="1.0" encoding="UTF-8"?>
<svg width="60px" height="60px" viewBox="0 0 60 60" version="1.1" xmlns="http://www.w3.org/2000/svg" xmlns:xlink="http://www.w3.org/1999/xlink">
    <title>6</title>
    <defs>
        <polygon id="path-1" points="0 0 14.2592811 0 14.2592811 14.4482093 0 14.4482093"></polygon>
        <polygon id="path-3" points="0 4.33802664e-15 14.2593715 4.33802664e-15 14.2593715 14.4483314 0 14.4483314"></polygon>
        <polygon id="path-5" points="-4.28135585e-15 0 36.9967036 0 36.9967036 26.6385826 -4.28135585e-15 26.6385826"></polygon>
        <polygon id="path-7" points="-4.28135585e-15 0 26.2906437 0 26.2906437 37.4863548 -4.28135585e-15 37.4863548"></polygon>
    </defs>
    <g id="Page-1" stroke="none" stroke-width="1" fill="none" fill-rule="evenodd">
        <g id="myobu-desktop-home" transform="translate(-1278.000000, -1531.000000)">
            <g id="6" transform="translate(1278.000000, 1531.000000)">
                <g id="Group-3" transform="translate(-0.000000, 0.000000)">
                    <mask id="mask-2" fill="white">
                        <use xlink:href="#path-1"></use>
                    </mask>
                    <g id="Clip-2"></g>
                    <path d="M7.16519084,0.00170946433 C7.1531399,0.00170946433 7.1416915,-0.000122104595 7.12964056,-0.000122104595 C3.19199416,-0.000122104595 0,3.23412335 0,7.22419625 C0,11.2136586 3.19199416,14.4482093 7.12964056,14.4482093 C7.1416915,14.4482093 7.1531399,14.4463778 7.16519084,14.4463778 C11.0865685,14.426841 14.2592811,11.2017534 14.2592811,7.22419625 C14.2592811,3.24633381 11.0865685,0.0212461995 7.16519084,0.00170946433" id="Fill-1" fill="#8F75F9" mask="url(#mask-2)"></path>
                </g>
                <g id="Group-6" transform="translate(45.740629, 45.551669)">
                    <mask id="mask-4" fill="white">
                        <use xlink:href="#path-3"></use>
                    </mask>
                    <g id="Clip-5"></g>
                    <path d="M7.16519084,0.00183156892 C7.1531399,0.00183156892 7.1416915,4.33802664e-15 7.12964056,4.33802664e-15 C3.19199416,4.33802664e-15 0,3.23455072 0,7.22431835 C0,11.214086 3.19199416,14.4483314 7.12964056,14.4483314 C7.1416915,14.4483314 7.1531399,14.4464999 7.16519084,14.4464999 C11.0865685,14.4269631 14.2595824,11.2018755 14.2595824,7.22431835 C14.2595824,3.24645591 11.0865685,0.0213683041 7.16519084,0.00183156892" id="Fill-4" fill="#CDBDFF" mask="url(#mask-4)"></path>
                </g>
                <g id="Group-9" transform="translate(22.261470, 0.000000)">
                    <mask id="mask-6" fill="white">
                        <use xlink:href="#path-5"></use>
                    </mask>
                    <g id="Clip-8"></g>
                    <polygon id="Fill-7" fill="#CDBDFF" mask="url(#mask-6)" points="36.9967036 -6.10522974e-05 -4.28135585e-15 21.9106927 10.7060599 26.6385826"></polygon>
                </g>
                <g id="Group-12" transform="translate(32.967530, 0.000000)">
                    <mask id="mask-8" fill="white">
                        <use xlink:href="#path-7"></use>
                    </mask>
                    <g id="Clip-11"></g>
                    <polygon id="Fill-10" fill="#8F75F9" mask="url(#mask-8)" points="26.2906437 -6.10522974e-05 4.66642732 37.4863548 -4.28135585e-15 26.6385826"></polygon>
                </g>
                <polygon id="Fill-13" fill="#CDBDFF" points="0.637193737 59.3969865 37.6338973 37.4862327 32.9677713 26.6384605"></polygon>
                <polygon id="Fill-15" fill="#8F75F9" points="0.637193737 59.3969865 22.2614101 21.9105706 32.9677713 26.6384605"></polygon>
            </g>
        </g>
    </g>
</svg>