<?xml version="1.0" encoding="UTF-8"?>
<svg width="60px" height="60px" viewBox="0 0 60 60" version="1.1" xmlns="http://www.w3.org/2000/svg" xmlns:xlink="http://www.w3.org/1999/xlink">
    <title>3</title>
    <g id="Page-1" stroke="none" stroke-width="1" fill="none" fill-rule="evenodd">
        <g id="myobu-desktop-home" transform="translate(-1000.000000, -1310.000000)">
            <g id="3" transform="translate(1000.000000, 1310.000000)">
                <polygon id="Fill-1" fill="#CDBDFF" points="52.0125842 27.0650993 44.024897 43.532801 52.0125842 41.8359351"></polygon>
                <polygon id="Fill-2" fill="#8F75F9" points="52.0126144 41.8361421 60 43.5327123 52.0126144 27.0650105"></polygon>
                <polygon id="Fill-3" fill="#CDBDFF" points="52.0126144 59.9999409 60 43.5325348 52.0126144 41.8362604"></polygon>
                <polygon id="Fill-4" fill="#8F75F9" points="44.024897 43.532594 52.0125842 60 52.0125842 41.8360238"></polygon>
                <polygon id="Fill-5" fill="#CDBDFF" points="0 43.532594 7.98768727 41.8360238 7.98768727 27.0648923"></polygon>
                <polygon id="Fill-6" fill="#8F75F9" points="7.98762693 27.0650993 15.9753142 43.532801 7.98762693 41.8359351"></polygon>
                <polygon id="Fill-7" fill="#CDBDFF" points="7.98771744 59.9999409 15.975103 43.5325348 7.98771744 41.8362604"></polygon>
                <polygon id="Fill-8" fill="#8F75F9" points="0 43.532594 7.98768727 60 7.98768727 41.8360238"></polygon>
                <polygon id="Fill-9" fill="#CDBDFF" points="30.0182217 0 19.1337647 22.4401491 30.0182217 20.127881"></polygon>
                <polygon id="Fill-10" fill="#8F75F9" points="30.0182217 0 30.0182217 20.127881 40.9026788 22.4401491"></polygon>
                <polygon id="Fill-11" fill="#CDBDFF" points="30.0182217 44.8801799 40.9026788 22.4400308 30.0182217 20.1280585"></polygon>
                <polygon id="Fill-12" fill="#8F75F9" points="30.0182217 44.8801799 19.1337647 22.4400308 30.0182217 20.1280585"></polygon>
            </g>
        </g>
    </g>
</svg>